<svg width="14" height="14" viewBox="0 0 14 14" fill="none" xmlns="http://www.w3.org/2000/svg">
<path fill-rule="evenodd" clip-rule="evenodd" d="M1.87289 0.100227C2.20768 0.235793 2.47545 0.498002 2.61802 0.829878C2.69032 0.999588 2.72675 1.18242 2.72502 1.36688C2.72617 1.54999 2.68975 1.7314 2.61802 1.89988C2.51299 2.14567 2.33782 2.35503 2.11442 2.50177C1.89102 2.64851 1.6293 2.72612 1.36202 2.72488C1.17924 2.72592 0.99818 2.68951 0.830017 2.61788C0.582979 2.51406 0.372272 2.33932 0.224535 2.11575C0.0767979 1.89219 -0.00133408 1.62984 1.72366e-05 1.36188C-0.000870101 1.17921 0.0351856 0.998254 0.106017 0.829878C0.243373 0.503143 0.503282 0.243234 0.830017 0.105878C1.16332 -0.0333084 1.53809 -0.0353394 1.87289 0.100227ZM1.57502 1.86488C1.7054 1.80913 1.80927 1.70526 1.86502 1.57488C1.8929 1.50838 1.90718 1.43698 1.90702 1.36488C1.90813 1.2654 1.88215 1.1675 1.83185 1.08167C1.78156 0.995835 1.70884 0.925314 1.62151 0.877668C1.53418 0.830021 1.43553 0.807046 1.33614 0.811206C1.23674 0.815366 1.14035 0.846505 1.05731 0.901283C0.974265 0.956061 0.907699 1.03241 0.864751 1.12215C0.821802 1.21188 0.804091 1.31161 0.813517 1.41065C0.822942 1.50968 0.859149 1.60428 0.918254 1.6843C0.977359 1.76433 1.05713 1.82675 1.14902 1.86488C1.28549 1.92089 1.43854 1.92089 1.57502 1.86488ZM5.42995 0.109502L0.109674 5.42977L0.795568 6.11567L6.11584 0.795396L5.42995 0.109502ZM10.5 7.99999H11.5V10.5H14V11.5H11.5V14H10.5V11.5H8V10.5H10.5V7.99999ZM4.76777 8.52509L5.47487 9.2322L3.70711 11L5.47487 12.7677L4.76777 13.4748L3 11.7071L1.23223 13.4748L0.525126 12.7677L2.29289 11L0.525126 9.2322L1.23223 8.52509L3 10.2929L4.76777 8.52509ZM6.11802 4.32988C6.01442 4.08268 5.83973 3.87183 5.61612 3.72406C5.3925 3.57629 5.13004 3.49826 4.86202 3.49988C4.67935 3.49899 4.49839 3.53505 4.33002 3.60588C4.00328 3.74323 3.74337 4.00314 3.60602 4.32988C3.53588 4.49478 3.49897 4.67191 3.49741 4.8511C3.49586 5.0303 3.52967 5.20804 3.59693 5.37414C3.66419 5.54024 3.76356 5.69143 3.88936 5.81906C4.01516 5.94669 4.1649 6.04823 4.33002 6.11788C4.49867 6.18848 4.67968 6.22484 4.86252 6.22484C5.04535 6.22484 5.22636 6.18848 5.39502 6.11788C5.64201 6.01388 5.8527 5.83913 6.00058 5.61563C6.14845 5.39213 6.22689 5.12987 6.22602 4.86188C6.22655 4.67905 6.1898 4.49803 6.11802 4.32988ZM5.36502 5.07488C5.33766 5.13937 5.29829 5.19808 5.24902 5.24788C5.19908 5.29724 5.14042 5.33691 5.07602 5.36488C5.00854 5.39297 4.93611 5.40725 4.86302 5.40688C4.78991 5.40744 4.71744 5.39315 4.65002 5.36488C4.58541 5.33729 4.52668 5.29757 4.47702 5.24788C4.42691 5.19856 4.38713 5.13975 4.36002 5.07488C4.30401 4.9384 4.30401 4.78536 4.36002 4.64888C4.41536 4.51846 4.51941 4.41477 4.65002 4.35988C4.71737 4.33126 4.78984 4.31663 4.86302 4.31688C4.93618 4.31685 5.0086 4.33147 5.07602 4.35988C5.14037 4.38749 5.19904 4.42682 5.24902 4.47588C5.29786 4.52603 5.33717 4.58465 5.36502 4.64888C5.3934 4.7163 5.40802 4.78872 5.40802 4.86188C5.40802 4.93503 5.3934 5.00745 5.36502 5.07488ZM13 2H9V3H13V2Z" fill="currentColor"/>
</svg>
