<svg width="51" height="51" viewBox="0 0 51 51" fill="none" xmlns="http://www.w3.org/2000/svg">
<path d="M50.3315 0H0V50.3315H50.3315V0Z" fill="#F7DF1E"/>
<path d="M33.81 39.3217C34.8238 40.9771 36.1428 42.1938 38.4756 42.1938C40.4354 42.1938 41.6873 41.2143 41.6873 39.861C41.6873 38.2392 40.401 37.6648 38.2439 36.7213L37.0616 36.214C33.6486 34.7599 31.3813 32.9384 31.3813 29.0876C31.3813 25.5405 34.084 22.8401 38.3079 22.8401C41.315 22.8401 43.4768 23.8867 45.0347 26.627L41.3517 28.9918C40.5408 27.5378 39.666 26.9649 38.3079 26.9649C36.9225 26.9649 36.0445 27.8437 36.0445 28.9918C36.0445 30.4106 36.9233 30.9851 38.9526 31.8639L40.135 32.3704C44.1535 34.0936 46.4224 35.8504 46.4224 39.8003C46.4224 44.0585 43.0774 46.3913 38.5851 46.3913C34.1927 46.3913 31.3549 44.2981 29.9664 41.5547L33.81 39.3217ZM17.1023 39.7316C17.8453 41.0498 18.5212 42.1643 20.1462 42.1643C21.7001 42.1643 22.6803 41.5563 22.6803 39.1923V23.1102H27.4099V39.2562C27.4099 44.1535 24.5386 46.3825 20.3475 46.3825C16.5606 46.3825 14.3676 44.4228 13.2523 42.0624L17.1023 39.7316Z" fill="black"/>
</svg>
