<svg width="13" height="9" viewBox="0 0 13 9" fill="none" xmlns="http://www.w3.org/2000/svg">
<path fill-rule="evenodd" clip-rule="evenodd" d="M12 0H1C0.734784 0 0.480444 0.10531 0.292908 0.292847C0.105371 0.480383 0 0.734784 0 1V8C0 8.26522 0.105371 8.51962 0.292908 8.70715C0.480444 8.89469 0.734784 9 1 9H12C12.2652 9 12.5196 8.89469 12.7071 8.70715C12.8946 8.51962 13 8.26522 13 8V1C13 0.734784 12.8946 0.480383 12.7071 0.292847C12.5196 0.10531 12.2652 0 12 0ZM12 8H1V1H12V8ZM9 2H8V3H9V2ZM8 4H7V5H8V4ZM10 2H11V3H10V2ZM11 6H10V7H11V6ZM4 6H9V7H4V6ZM11 4H9V5H11V4ZM6 2H7V3H6V2ZM6 4H5V5H6V4ZM2 6H3V7H2V6ZM2 2H3V3H2V2ZM5 2H4V3H5V2ZM2 4H4V5H2V4Z" fill="#C5C5C5"/>
</svg>
