<svg width="12" height="12" viewBox="0 0 12 12" fill="none" xmlns="http://www.w3.org/2000/svg">
<path fill-rule="evenodd" clip-rule="evenodd" d="M4 0.983607V0.971844V0H3.91083C3.59743 0 3.29407 0.0616122 3.00128 0.184731C2.70818 0.307981 2.44942 0.484738 2.22578 0.714979C2.00311 0.944217 1.83792 1.19498 1.73282 1.46766L1.73233 1.46898C1.63382 1.7352 1.56814 2.01201 1.53533 2.29917L1.53519 2.30053C1.50678 2.5805 1.4987 2.86844 1.51084 3.16428C1.52272 3.45379 1.52866 3.74329 1.52866 4.03279C1.52866 4.23556 1.48974 4.42594 1.412 4.60507L1.4116 4.60601C1.33687 4.78296 1.23423 4.93866 1.10317 5.07359C0.976442 5.20405 0.824657 5.31055 0.646718 5.3925C0.470598 5.46954 0.284972 5.5082 0.089172 5.5082H0V5.6V6.4V6.4918H0.089172C0.284652 6.4918 0.470013 6.53238 0.646008 6.61334L0.64742 6.61396C0.824574 6.69157 0.975774 6.79762 1.10221 6.93161L1.10412 6.93352C1.23428 7.0637 1.33659 7.21871 1.41129 7.39942L1.41201 7.40108C1.48986 7.58047 1.52866 7.76883 1.52866 7.96721C1.52866 8.25671 1.52272 8.54621 1.51084 8.83572C1.4987 9.13158 1.50677 9.42152 1.53516 9.70546L1.53535 9.70715C1.56819 9.99028 1.63387 10.265 1.73232 10.531L1.73283 10.5323C1.83793 10.805 2.00311 11.0558 2.22578 11.285C2.44942 11.5153 2.70818 11.692 3.00128 11.8153C3.29407 11.9384 3.59743 12 3.91083 12H4V11.2V11.0164H3.91083C3.71095 11.0164 3.52346 10.9777 3.34763 10.9008C3.17396 10.8191 3.02194 10.7126 2.89086 10.5818C2.76386 10.4469 2.66104 10.2911 2.58223 10.1137C2.50838 9.9346 2.47134 9.74404 2.47134 9.54098C2.47134 9.31273 2.4753 9.08855 2.48321 8.86858C2.49125 8.64106 2.49127 8.41951 2.48324 8.20395C2.47914 7.98246 2.46084 7.76883 2.42823 7.56312C2.39513 7.35024 2.33921 7.14757 2.26039 6.95536C2.18091 6.76157 2.07258 6.57746 1.93616 6.40298C1.82345 6.25881 1.68538 6.12462 1.52283 6C1.68538 5.87538 1.82345 5.74119 1.93616 5.59702C2.07258 5.42254 2.18091 5.23843 2.26039 5.04464C2.33913 4.85263 2.39513 4.65175 2.42826 4.44285C2.46082 4.2333 2.47914 4.01973 2.48324 3.80219C2.49127 3.58262 2.49125 3.36105 2.48321 3.13749C2.4753 2.9134 2.47134 2.68725 2.47134 2.45902C2.47134 2.26019 2.50833 2.07152 2.58238 1.89205C2.66135 1.71034 2.76421 1.55475 2.89086 1.42437C3.02193 1.28942 3.17461 1.18275 3.34802 1.10513C3.5238 1.02427 3.71113 0.983607 3.91083 0.983607H4ZM8 11.0164V11.0282V12H8.08917C8.40257 12 8.70593 11.9384 8.99872 11.8153C9.29183 11.692 9.55058 11.5153 9.77422 11.285C9.99689 11.0558 10.1621 10.805 10.2672 10.5323L10.2677 10.531C10.3662 10.2648 10.4319 9.98799 10.4647 9.70083L10.4648 9.69947C10.4932 9.4195 10.5013 9.13156 10.4892 8.83572C10.4773 8.54621 10.4713 8.25671 10.4713 7.96721C10.4713 7.76444 10.5103 7.57406 10.588 7.39493L10.5884 7.39399C10.6631 7.21704 10.7658 7.06134 10.8968 6.92642C11.0236 6.79595 11.1753 6.68945 11.3533 6.6075C11.5294 6.53046 11.715 6.4918 11.9108 6.4918H12V6.4V5.6V5.5082H11.9108C11.7153 5.5082 11.53 5.46762 11.354 5.38666L11.3526 5.38604C11.1754 5.30844 11.0242 5.20238 10.8978 5.06839L10.8959 5.06648C10.7657 4.9363 10.6634 4.78129 10.5887 4.60058L10.588 4.59892C10.5101 4.41953 10.4713 4.23117 10.4713 4.03279C10.4713 3.74329 10.4773 3.45379 10.4892 3.16428C10.5013 2.86842 10.4932 2.57848 10.4648 2.29454L10.4646 2.29285C10.4318 2.00971 10.3661 1.73502 10.2677 1.46897L10.2672 1.46766C10.1621 1.19499 9.99689 0.944218 9.77422 0.714978C9.55058 0.484738 9.29183 0.30798 8.99872 0.18473C8.70593 0.0616109 8.40257 0 8.08917 0H8V0.8V0.983607H8.08917C8.28905 0.983607 8.47654 1.0223 8.65237 1.09917C8.82604 1.18092 8.97807 1.28736 9.10914 1.41823C9.23614 1.55305 9.33896 1.70889 9.41777 1.88628C9.49162 2.0654 9.52866 2.25596 9.52866 2.45902C9.52866 2.68727 9.5247 2.91145 9.51679 3.13142C9.50875 3.35894 9.50873 3.58049 9.51676 3.79605C9.52086 4.01754 9.53916 4.23117 9.57177 4.43688C9.60487 4.64976 9.66079 4.85243 9.73962 5.04464C9.81909 5.23843 9.92743 5.42254 10.0638 5.59702C10.1765 5.74119 10.3146 5.87538 10.4772 6C10.3146 6.12462 10.1765 6.25881 10.0638 6.40298C9.92743 6.57746 9.81909 6.76157 9.73961 6.95536C9.66087 7.14737 9.60487 7.34825 9.57174 7.55715C9.53918 7.7667 9.52086 7.98027 9.51676 8.19781C9.50873 8.41738 9.50875 8.63895 9.51679 8.86251C9.5247 9.0866 9.52866 9.31275 9.52866 9.54098C9.52866 9.73981 9.49167 9.92848 9.41762 10.1079C9.33865 10.2897 9.23579 10.4452 9.10914 10.5756C8.97807 10.7106 8.82539 10.8173 8.65198 10.8949C8.4762 10.9757 8.28887 11.0164 8.08917 11.0164H8Z" fill="currentColor"/>
</svg>
