<svg width="14" height="11" viewBox="0 0 14 11" fill="none" xmlns="http://www.w3.org/2000/svg">
<path fill-rule="evenodd" clip-rule="evenodd" d="M1 0L0 1V10L1 11H13L14 10V1L13 0H1ZM1 10V1H13V10H1ZM4.3556 6.93017H5V5.22067C5 4.40689 4.68534 4 4.05603 4C3.92098 4 3.77083 4.02421 3.6056 4.07263C3.44181 4.12104 3.3125 4.17691 3.21767 4.24022V4.90503C3.45474 4.70205 3.70474 4.60056 3.96767 4.60056C4.22917 4.60056 4.35991 4.75698 4.35991 5.06983L3.76078 5.17318C3.25359 5.25885 3 5.57914 3 6.13408C3 6.39665 3.06106 6.60708 3.18319 6.76536C3.30675 6.92179 3.47557 7 3.68966 7C3.97989 7 4.19899 6.83985 4.34698 6.51955H4.3556V6.93017ZM4.35991 5.57542V5.76816C4.35991 5.9432 4.31968 6.08845 4.23922 6.20391C4.15876 6.3175 4.0546 6.3743 3.92672 6.3743C3.83477 6.3743 3.76149 6.34264 3.7069 6.27933C3.65374 6.21415 3.62716 6.13128 3.62716 6.03073C3.62716 5.80912 3.73779 5.6797 3.95905 5.64246L4.35991 5.57542ZM6.60094 6.62622H6.59343V6.93511H6V3H6.59343V4.67683H6.60094C6.74742 4.36708 6.95587 4.2122 7.22629 4.2122C7.47418 4.2122 7.6651 4.32987 7.79906 4.56522C7.93302 4.80056 8 5.12243 8 5.53082C8 5.97383 7.92175 6.32944 7.76526 6.59766C7.60876 6.86589 7.39969 7 7.13803 7C6.90141 7 6.72238 6.87541 6.60094 6.62622ZM6.58404 5.50487V5.77742C6.58404 5.94873 6.61972 6.09063 6.69108 6.20311C6.76244 6.3156 6.85383 6.37184 6.96526 6.37184C7.10047 6.37184 7.20501 6.30002 7.27887 6.15639C7.35399 6.01103 7.39155 5.80597 7.39155 5.54121C7.39155 5.32144 7.35712 5.15012 7.28826 5.02726C7.22066 4.90266 7.12363 4.84036 6.99718 4.84036C6.87825 4.84036 6.77934 4.9018 6.70047 5.02466C6.62285 5.14752 6.58404 5.30759 6.58404 5.50487ZM10.2616 7C10.5834 7 10.8295 6.94227 11 6.82682V6.11732C10.82 6.25512 10.636 6.32402 10.448 6.32402C10.2362 6.32402 10.0697 6.25233 9.94863 6.10894C9.82756 5.96369 9.76702 5.76443 9.76702 5.51117C9.76702 5.25047 9.82995 5.04656 9.95579 4.89944C10.0832 4.75047 10.2553 4.67598 10.4719 4.67598C10.6663 4.67598 10.8423 4.74488 11 4.88268V4.13408C10.871 4.04469 10.6623 4 10.374 4C9.95659 4 9.62286 4.1406 9.37276 4.42179C9.12425 4.70112 9 5.0838 9 5.56983C9 5.99069 9.11629 6.33426 9.34886 6.60056C9.58144 6.86685 9.8857 7 10.2616 7Z" fill="currentColor"/>
</svg>
